<svg width="561" height="264" viewBox="0 0 561 264" fill="none" xmlns="http://www.w3.org/2000/svg">
<ellipse cx="340.953" cy="101.294" rx="40.5837" ry="40.7435" transform="rotate(25.6442 340.953 101.294)" fill="#A4B8FF"/>
<path d="M481 249.23C481 286.681 432.19 307 378.594 307C324.997 307 266 300.144 266 262.693C266 225.241 345.907 152 399.504 152C453.1 152 481 211.779 481 249.23Z" fill="#918ADD"/>
<path d="M583 13.233C583 49.2602 567.354 88 527.316 88C487.279 88 417 49.2602 417 13.233C417 -22.7942 470.469 -52 510.506 -52C550.543 -52 583 -22.7942 583 13.233Z" fill="#999CE9"/>
<ellipse cx="66.1465" cy="-22.464" rx="146" ry="114.415" transform="rotate(25.6442 66.1465 -22.464)" fill="#A4B8FF"/>
</svg>
